PathFileType	4	(X/Y/Z)	C:\Users\°ÂÌØÂü\Desktop\20210112\bx_y_5_1801-Unnamed.trc
DataRate	CameraRate	NumFrames	NumMarkers	Units	OrigDataRate	OrigDataStartFrame	OrigNumFrames
50.00	50.00	       4	0	mm	50.00	489	       558
Frame#	Time	
		

489	9.760	-710.62469	152.34656	216.11513	-517.60492	-72.52105	142.65837	-633.98859	280.96133	880.87585	-718.17621	-20.80071	571.56183	-713.73798	76.83997	216.96362	-711.13690	250.48630	640.31476	-714.77802	243.87523	580.00275	-668.56525	19.29716	523.62445	-681.41510	273.47919	750.29089	-689.57007	83.85120	583.83215	-666.47198	-68.89857	161.43188	-599.93640	107.84119	1439.07068	-625.06879	-79.94928	158.60356	-770.76099	221.96233	205.46222	-882.44019	296.13928	144.69241	-604.63342	-12.39459	1059.63879	-602.56982	17.30599	168.43108	-560.38068	-42.38531	161.89816	-675.06494	174.30370	156.44168	-594.06726	223.78442	173.12975	-666.44476	299.13290	160.18536	-629.34509	307.78830	161.14838	-561.59875	262.80551	165.33142	-528.09497	304.43414	146.44843	-684.70074	114.35654	1855.07715	-684.68036	296.32712	1543.58911	-663.35553	202.49048	535.19366	-795.34607	172.32306	184.44141	-768.76318	-3.64925	207.99512	-792.32880	58.44111	176.05272	-654.14746	-65.43810	862.14313	-769.78638	-27.98087	492.88873	-875.93359	-78.96604	141.13327	-594.79590	-3.59368	809.23389	-678.92365	-58.24598	1572.32397	-760.27960	252.53397	506.10745	-673.17719	53.65513	160.01208	-581.17773	213.56590	829.45996	-677.07098	142.48686	582.15491				-798.36627	107.46672	1041.32556	-687.13025	-46.95404	711.30225	-586.78888	216.82759	1073.15723	-703.97803	-24.42106	618.46710	
490	9.780	-710.92651	152.19852	216.38025	-517.86078	-72.31510	142.43881	-632.73773	282.02289	882.16638	-718.11060	-20.88469	571.74438	-713.73798	76.83997	216.96362	-711.99115	250.45450	640.86383	-715.67017	243.81920	580.49573	-668.48065	19.49132	523.47980				-688.76550	83.60212	583.47809	-666.38318	-68.68227	161.32477	-600.54895	108.10583	1439.13525	-625.28827	-80.05997	158.71484	-770.87659	221.85440	205.40524	-882.43549	296.00012	144.61276	-604.24005	-12.64770	1059.39856	-602.47339	17.32820	168.36571	-560.38068	-42.38531	161.89816	-675.06494	174.30370	156.44168	-594.42303	224.02156	173.47198	-666.57037	299.18359	159.85464	-629.43665	307.96475	161.41550	-561.59387	262.66672	165.28827	-528.04987	304.39276	146.47350	-686.15912	114.25686	1855.07361	-686.12109	296.19357	1544.19751	-664.26172	202.23592	535.76221	-795.45325	172.46841	184.52881	-768.21741	-3.23728	207.56068	-791.76398	58.55676	175.67848	-653.76038	-65.81279	861.92700	-769.31396	-28.09484	492.75711	-876.14282	-78.97297	141.01248	-594.49945	-3.63010	809.26031	-679.97540	-58.50532	1572.16162	-760.92603	252.96356	506.25473	-673.25220	53.54189	159.59856	-580.85162	212.84621	828.94757	-678.52893	142.40909	582.03497				-797.45367	107.45323	1041.25513	-686.47607	-47.05764	711.44446	-585.46124	216.45732	1072.75574	-703.58832	-24.70678	618.70996	
491	9.800	-710.92651	152.19852	216.38025	-517.60492	-72.52105	142.65837	-632.23450	281.50391	881.53436	-718.02765	-20.85175	571.41309	-713.84644	77.12822	216.66705	-712.72534	250.14990	640.62598	-717.09296	243.81070	580.33435	-668.44379	19.43951	523.22064				-688.80798	83.50211	583.49780	-666.44067	-68.61348	161.30907	-601.42230	108.20351	1439.37378	-625.02802	-79.93523	158.50534	-770.87134	221.91530	205.51508	-882.53021	296.19693	144.72672	-603.48688	-12.99797	1059.07458	-602.46051	17.34094	168.25604	-560.49493	-42.18015	161.92342	-674.90295	173.98363	156.85486	-594.18903	224.13252	173.18759	-666.64795	299.15030	159.65642	-629.35535	307.86972	161.20468	-561.59406	262.90417	165.56870	-528.05817	304.30383	146.49913	-687.70245	114.45325	1855.08423	-687.13135	296.17856	1544.44568	-665.54645	201.84000	536.04749	-795.40283	172.41838	184.38875	-768.21741	-3.23728	207.56068	-792.18585	58.42689	176.15355	-653.51111	-66.19658	861.68927	-769.35626	-28.04452	492.65567	-875.94183	-79.15352	141.42744	-594.04535	-4.08593	808.84955	-681.56830	-58.69653	1572.11414	-761.98389	252.54951	506.38916	-673.24310	53.71328	159.26060	-581.35815	211.92261	828.47058	-680.19806	142.33986	582.05048				-796.57739	107.25654	1041.05737	-686.66791	-46.99092	711.24615	-584.61963	215.81154	1072.78857	-703.62604	-24.66448	618.83313	
492	9.820	-710.92651	152.19852	216.38025	-517.68689	-72.20956	142.32034	-631.75238	280.89056	880.82214	-718.11584	-21.01534	571.58936	-713.79376	77.18534	216.56161	-713.76099	250.69820	641.19037	-717.96600	243.80481	580.52649	-668.52954	19.30275	523.52625	-681.76941	272.83417	750.41455	-689.04681	83.25678	583.64929	-666.52191	-68.64570	161.25046	-601.92993	108.27860	1439.85132	-625.19049	-79.99319	158.54076	-770.94678	222.08487	205.31575	-882.57581	295.99649	144.46762	-602.88129	-13.42395	1058.72607	-602.56744	17.48656	168.13504	-560.30750	-42.48524	161.92017	-675.08795	174.07935	156.88002	-594.18994	223.95602	173.02251	-666.62921	299.11761	159.82272	-629.46344	307.86084	161.21953	-561.61664	262.88620	165.54761	-528.14117	304.15381	146.34581	-688.93854	114.10094	1854.99902	-688.81177	296.01120	1544.49182	-666.72272	201.90480	536.05371	-795.49072	172.47391	184.46637	-768.19824	-3.17670	207.49988	-791.79883	58.45855	175.79355	-653.09198	-66.44860	861.44135	-769.50488	-28.22321	492.64066	-875.93195	-78.89499	141.20357	-593.95929	-4.24960	808.69983	-682.72284	-58.36394	1571.98486	-763.45276	252.69608	506.66058	-673.24310	53.71328	159.26060	-581.25604	211.27141	828.47345	-680.99982	142.25130	582.19702				-795.91840	106.98365	1041.06580	-687.20032	-47.82527	711.35040	-583.89532	215.68663	1072.29102	-703.72766	-24.64985	618.51477	
